<svg width="24" height="24" viewBox="0 0 24 24" fill="none" xmlns="http://www.w3.org/2000/svg">
<g id="Frame 34275">
<path id="Vector" d="M2.34876 10.8391L15.4534 5.49635C16.747 4.93981 21.134 3.15891 21.134 3.15891C21.134 3.15891 23.1587 2.37976 22.99 4.27197C22.9338 5.05112 22.4838 7.77813 22.0339 10.7277L20.6278 19.4653C20.6278 19.4653 20.5153 20.7453 19.5592 20.9679C18.603 21.1906 17.0282 20.1888 16.747 19.9662C16.522 19.7992 12.5288 17.2948 11.0665 16.0705C10.6728 15.7365 10.2228 15.0687 11.1227 14.2896C13.1475 12.453 15.5659 10.1712 17.0282 8.72423C17.7032 8.05639 18.3781 6.4981 15.5659 8.39031L7.63562 13.6774C7.63562 13.6774 6.73573 14.2339 5.04844 13.733C3.36114 13.2321 1.39263 12.5643 1.39263 12.5643C1.39263 12.5643 0.0427937 11.7295 2.34876 10.8391Z" fill="white"/>
</g>
</svg>
