<svg width="24" height="24" viewBox="0 0 24 24" fill="none" xmlns="http://www.w3.org/2000/svg">
<g id="Frame 34275">
<path id="Vector" d="M22.0253 5.61879C20.1114 4.07537 15.8582 4 12 4C8.14177 4 3.88861 4.07537 1.97468 5.61879C0.0607595 7.16221 0 10.5063 0 12.4999C0 14.4935 0.0607595 17.8375 1.97468 19.381C3.88861 20.9244 8.14177 21 12 21V20.9997C15.8582 20.9997 20.1114 20.9244 22.0253 19.381C23.9392 17.8375 24 14.4935 24 12.4999C24 10.5063 23.9392 7.16221 22.0253 5.61879ZM15.8026 12.9495L15.8033 12.9506L9.28356 16.628C9.24857 16.6548 9.21041 16.6761 9.16934 16.6926L9.16132 16.6972L9.16083 16.6954C9.10809 16.7155 9.05195 16.7283 8.99265 16.7283C8.71583 16.7283 8.4915 16.4906 8.4915 16.1979V8.78589C8.4915 8.4929 8.71607 8.25547 8.99265 8.25547C9.07066 8.25547 9.14382 8.27604 9.20968 8.30974L9.20992 8.30949L15.8033 12.0502L15.8031 12.0507C15.9452 12.1444 16.0407 12.31 16.0407 12.5001C16.0405 12.6902 15.9447 12.8559 15.8026 12.9495Z" fill="white"/>
</g>
</svg>
